HIERARCHY
ROOT hips_dup
{
	OFFSET 38.994835 108.019676 230.402130
	CHANNELS 6 Xposition Yposition Zposition Zrotation Yrotation Xrotation
	JOINT l_hip_dup
	{
		OFFSET 0.100000 0.000000 0.000000
		CHANNELS 3 Zrotation Yrotation Xrotation
		JOINT l_thigh_dup
		{
			OFFSET 7.071068 -7.071068 0.000000
			CHANNELS 3 Zrotation Yrotation Xrotation
			JOINT l_knee_dup
			{
				OFFSET 0.000020 -50.000011 0.000000
				CHANNELS 3 Zrotation Yrotation Xrotation
				JOINT l_foot_dup
				{
					OFFSET 0.000022 -46.844974 0.000000
					CHANNELS 3 Zrotation Yrotation Xrotation
					JOINT l_toes_dup
					{
						OFFSET 0.000004 -3.481765 12.994138
						CHANNELS 3 Zrotation Yrotation Xrotation
						End l_toes_End_dup
						{
							OFFSET 0.000000 0.000003 9.999998
						}
					}
				}
			}
		}
	}
	JOINT r_hip_dup
	{
		OFFSET 0.100000 0.000000 0.000000
		CHANNELS 3 Zrotation Yrotation Xrotation
		JOINT r_thigh_dup
		{
			OFFSET -7.071067 -7.071068 0.000000
			CHANNELS 3 Zrotation Yrotation Xrotation
			JOINT r_knee_dup
			{
				OFFSET 0.000026 -50.000000 -0.000000
				CHANNELS 3 Zrotation Yrotation Xrotation
				JOINT r_foot_dup
				{
					OFFSET 0.000021 -46.844951 0.000000
					CHANNELS 3 Zrotation Yrotation Xrotation
					JOINT r_toes_dup
					{
						OFFSET 0.000006 -3.481758 12.994106
						CHANNELS 3 Zrotation Yrotation Xrotation
						End r_toes_End_dup
						{
							OFFSET 0.000000 -0.000003 9.999996
						}
					}
				}
			}
		}
	}
	JOINT spine1_dup
	{
		OFFSET 0.000000 0.099998 0.000000
		CHANNELS 3 Zrotation Yrotation Xrotation
		JOINT spine2_dup
		{
			OFFSET 0.000001 10.421844 0.000000
			CHANNELS 3 Zrotation Yrotation Xrotation
			JOINT spine3_dup
			{
				OFFSET 0.000001 10.421852 0.000000
				CHANNELS 3 Zrotation Yrotation Xrotation
				JOINT spine4_dup
				{
					OFFSET 0.000001 10.421829 -0.000000
					CHANNELS 3 Zrotation Yrotation Xrotation
					JOINT neck1_dup
					{
						OFFSET 0.000001 10.421814 0.000000
						CHANNELS 3 Zrotation Yrotation Xrotation
						JOINT neck2_dup
						{
							OFFSET 0.000000 5.749954 -0.000000
							CHANNELS 3 Zrotation Yrotation Xrotation
							JOINT head_dup
							{
								OFFSET 0.000000 5.749924 0.000000
								CHANNELS 3 Zrotation Yrotation Xrotation
								End head_End_dup
								{
									OFFSET 0.000000 11.499686 -0.000000
								}
							}
						}
					}
					JOINT l_clavicle_dup
					{
						OFFSET 0.000000 10.421844 0.000000
						CHANNELS 3 Zrotation Yrotation Xrotation
						JOINT l_shoulder_dup
						{
							OFFSET 17.847798 3.850716 -0.981963
							CHANNELS 3 Zrotation Yrotation Xrotation
							JOINT l_elbow_dup
							{
								OFFSET 30.849020 0.000016 -0.000001
								CHANNELS 3 Zrotation Yrotation Xrotation
								JOINT l_hand_dup
								{
									OFFSET 30.320339 0.000015 -0.000002
									CHANNELS 3 Zrotation Yrotation Xrotation
									End l_hand_End_dup
									{
										OFFSET 14.999237 0.000010 0.000000
									}
								}
							}
						}
					}
					JOINT r_clavicle_dup
					{
						OFFSET 0.000000 10.421844 0.000000
						CHANNELS 3 Zrotation Yrotation Xrotation
						JOINT r_shoulder_dup
						{
							OFFSET -18.112579 2.260853 -1.076626
							CHANNELS 3 Zrotation Yrotation Xrotation
							JOINT r_elbow_dup
							{
								OFFSET -30.849059 0.000005 0.000001
								CHANNELS 3 Zrotation Yrotation Xrotation
								JOINT r_hand_dup
								{
									OFFSET -30.627892 0.000005 0.000004
									CHANNELS 3 Zrotation Yrotation Xrotation
									End r_hand_End_dup
									{
										OFFSET -14.999262 0.000003 0.000000
									}
								}
							}
						}
					}
				}
			}
		}
	}
}
MOTION
Frames: 14
Frame Time: 0.033333
0.0000 0.0000 0.0000 0.0000 0.0000 0.0000 0.0000 0.0000 0.0000 3.47873e-16 -6.21202e-17 -6.36189e-15 -3.47873e-16 6.21202e-17 1.2723e-14 -1.59028e-15 3.97569e-16 -9.34288e-15 0.0000 0.0000 0.0000 0.0000 0.0000 0.0000 1.76556e-31 3.18055e-15 6.36111e-15 7.95139e-16 -2.78299e-15 1.41521e-30 -8.19987e-16 -6.52262e-16 -6.36111e-15 0.0000 0.0000 0.0000 0.0000 0.0000 0.0000 0.0000 0.0000 0.0000 0.0000 0.0000 0.0000 0.0000 0.0000 0.0000 0.0000 0.0000 0.0000 0.0000 0.0000 0.0000 0.0000 0.0000 0.0000 0.0000 0.0000 0.0000 0 -8.44835e-16 0 -2.06902e-32 6.4605e-16 -1.59028e-15 8.27607e-32 5.56597e-15 3.18055e-15 0.0000 0.0000 0.0000 1.78906e-15 9.14409e-15 -7.95139e-16 -1.98785e-16 -7.35503e-15 7.95139e-16 -1.59028e-15 -3.93842e-15 -3.97569e-16 
0.0000 0.0000 0.0000 0.0000 0.0000 0.0000 0.0000 0.0000 0.0000 -0.0139503 0.10791 -0.0232211 0.0154951 -0.0519535 -0.00187267 -0.00331001 -0.0533226 0.0244236 0.0000 0.0000 0.0000 0.0000 0.0000 0.0000 -0.018914 0.0651062 -0.00974369 0.0196359 -0.0265015 0.0204076 7.09675e-05 -0.0388426 -0.0158037 0.0000 0.0000 0.0000 0.0000 0.0000 0.0000 0.0000 0.0000 0.0000 0.0000 0.0000 0.0000 0.0000 0.0000 0.0000 0.0000 0.0000 0.0000 0.0000 0.0000 0.0000 0.0000 0.0000 0.0000 0.0000 0.0000 0.0000 -0.010456 0.109658 0.0213416 -0.0413309 0.00827175 -0.00345481 0.0213582 -0.00541428 0.0328938 0.0000 0.0000 0.0000 0.0417223 0.0150534 -0.0377075 0.0391995 -0.0453407 -0.0551607 0.0211866 -0.0388005 -0.0509944 
0.0000 0.0000 0.0000 0.0000 0.0000 0.0000 0.0000 0.0000 0.0000 -0.0261036 0.219737 -0.0399868 0.0309461 -0.0891056 -0.0122466 -0.00819186 -0.125457 0.0526246 0.0000 0.0000 0.0000 0.0000 0.0000 0.0000 -0.0395526 0.131913 -0.011142 0.0372115 -0.0424816 0.0352482 0.00238713 -0.0871457 -0.0341627 0.0000 0.0000 0.0000 0.0000 0.0000 0.0000 0.0000 0.0000 0.0000 0.0000 0.0000 0.0000 0.0000 0.0000 0.0000 0.0000 0.0000 0.0000 0.0000 0.0000 0.0000 0.0000 0.0000 0.0000 0.0000 0.0000 0.0000 -0.0377017 0.216709 0.0333634 -0.0142308 0.0391996 0.0389802 0.0179161 -0.00104482 0.0431944 0.0000 0.0000 0.0000 0.084091 0.044671 -0.0917559 0.0764202 -0.0929895 -0.0498016 0.0537361 -0.0641448 -0.0491033 
0.0000 0.0000 0.0000 0.0000 0.0000 0.0000 0.0000 0.0000 0.0000 -0.034361 0.339252 -0.0590321 0.0394024 -0.129312 -0.0147699 -0.00978449 -0.203719 0.0752034 0.0000 0.0000 0.0000 0.0000 0.0000 0.0000 -0.0632832 0.200359 -0.015603 0.0599816 -0.0847124 0.054743 0.00162304 -0.111135 -0.0478997 0.0000 0.0000 0.0000 0.0000 0.0000 0.0000 0.0000 0.0000 0.0000 0.0000 0.0000 0.0000 0.0000 0.0000 0.0000 0.0000 0.0000 0.0000 0.0000 0.0000 0.0000 0.0000 0.0000 0.0000 0.0000 0.0000 0.0000 -0.0657469 0.32623 0.0434216 0.00517992 0.0639602 0.0739416 0.00959904 -0.00094304 0.0607112 0.0000 0.0000 0.0000 0.134947 0.086208 -0.127427 0.117984 -0.148126 -0.066168 0.053448 -0.0649165 0.0332436 
0.0000 0.0000 0.0000 0.0000 0.0000 0.0000 0.0000 0.0000 0.0000 -0.0457715 0.454533 -0.0877603 0.0563209 -0.216475 0.000240681 -0.0143799 -0.233434 0.0880263 0.0000 0.0000 0.0000 0.0000 0.0000 0.0000 -0.0876805 0.261885 -0.0173193 0.0794278 -0.145591 0.0765642 0.00593059 -0.10661 -0.0699198 0.0000 0.0000 0.0000 0.0000 0.0000 0.0000 0.0000 0.0000 0.0000 0.0000 0.0000 0.0000 0.0000 0.0000 0.0000 0.0000 0.0000 0.0000 0.0000 0.0000 0.0000 0.0000 0.0000 0.0000 0.0000 0.0000 0.0000 -0.10443 0.426523 0.0457891 -0.0185794 0.0789288 0.0814828 -0.00948219 -0.000538986 0.0816176 0.0000 0.0000 0.0000 0.194931 0.14537 -0.111031 0.148756 -0.208607 -0.0722106 0.0592446 -0.0704334 0.0541293 
0.0000 0.0000 0.0000 0.0000 0.0000 0.0000 0.0000 0.0000 0.0000 -0.0628099 0.565134 -0.131283 0.0751058 -0.290293 0.0400585 -0.0155316 -0.271579 0.0888993 0.0000 0.0000 0.0000 0.0000 0.0000 0.0000 -0.113268 0.320689 -0.0145228 0.0987818 -0.183695 0.0986206 0.00901841 -0.123721 -0.0975064 0.0000 0.0000 0.0000 0.0000 0.0000 0.0000 0.0000 0.0000 0.0000 0.0000 0.0000 0.0000 0.0000 0.0000 0.0000 0.0000 0.0000 0.0000 0.0000 0.0000 0.0000 0.0000 0.0000 0.0000 0.0000 0.0000 0.0000 -0.151747 0.512346 0.046393 -0.0831203 0.0886976 0.0677448 -0.0249724 0.00267572 0.0742786 0.0000 0.0000 0.0000 0.255135 0.214962 -0.0694693 0.165422 -0.266178 -0.0947992 0.0983805 -0.0685159 0.0412805 
0.0000 0.0000 0.0000 0.0000 0.0000 0.0000 0.0000 0.0000 0.0000 -0.0869645 0.678679 -0.1779 0.101632 -0.342532 0.090485 -0.0190518 -0.335256 0.0834794 0.0000 0.0000 0.0000 0.0000 0.0000 0.0000 -0.134049 0.398082 -0.0188498 0.107253 -0.16111 0.123939 0.0179626 -0.217204 -0.12393 0.0000 0.0000 0.0000 0.0000 0.0000 0.0000 0.0000 0.0000 0.0000 0.0000 0.0000 0.0000 0.0000 0.0000 0.0000 0.0000 0.0000 0.0000 0.0000 0.0000 0.0000 0.0000 0.0000 0.0000 0.0000 0.0000 0.0000 -0.203362 0.592259 0.0579915 -0.109621 0.102261 0.0559655 -0.0203614 -0.00658165 0.0639079 0.0000 0.0000 0.0000 0.304674 0.278135 -0.0537479 0.179448 -0.304479 -0.151767 0.117238 -0.0824645 0.0815472 
0.0000 0.0000 0.0000 0.0000 0.0000 0.0000 0.0000 0.0000 0.0000 -0.113177 0.794094 -0.237965 0.127586 -0.408322 0.160055 -0.020367 -0.388118 0.0730641 0.0000 0.0000 0.0000 0.0000 0.0000 0.0000 -0.151083 0.474738 -0.0294721 0.113213 -0.151278 0.159928 0.0244116 -0.294703 -0.155743 0.0000 0.0000 0.0000 0.0000 0.0000 0.0000 0.0000 0.0000 0.0000 0.0000 0.0000 0.0000 0.0000 0.0000 0.0000 0.0000 0.0000 0.0000 0.0000 0.0000 0.0000 0.0000 0.0000 0.0000 0.0000 0.0000 0.0000 -0.218812 0.681429 0.0863159 -0.116159 0.0996764 0.0527714 -0.000217078 -0.0155889 0.089839 0.0000 0.0000 0.0000 0.355448 0.337531 -0.0364298 0.179835 -0.330379 -0.221638 0.119697 -0.0873166 0.0589794 
0.0000 0.0000 0.0000 0.0000 0.0000 0.0000 0.0000 0.0000 0.0000 -0.135822 0.923368 -0.303935 0.154247 -0.506618 0.236885 -0.023961 -0.419191 0.0617485 0.0000 0.0000 0.0000 0.0000 0.0000 0.0000 -0.177593 0.556066 -0.0368579 0.127225 -0.183745 0.200863 0.0303657 -0.335626 -0.194498 0.0000 0.0000 0.0000 0.0000 0.0000 0.0000 0.0000 0.0000 0.0000 0.0000 0.0000 0.0000 0.0000 0.0000 0.0000 0.0000 0.0000 0.0000 0.0000 0.0000 0.0000 0.0000 0.0000 0.0000 0.0000 0.0000 0.0000 -0.210966 0.786849 0.115973 -0.103334 0.0817297 0.0662621 -0.0265651 -0.0429601 0.131551 0.0000 0.0000 0.0000 0.385753 0.394254 -0.0275271 0.195874 -0.356797 -0.342526 0.136561 -0.0929697 0.00155354 
0.0000 0.0000 0.0000 0.0000 0.0000 0.0000 0.0000 0.0000 0.0000 -0.161986 1.08322 -0.369189 0.19248 -0.565803 0.313797 -0.0407275 -0.520941 0.0547262 0.0000 0.0000 0.0000 0.0000 0.0000 0.0000 -0.200197 0.632932 -0.0348224 0.137898 -0.189377 0.230668 0.0382393 -0.401196 -0.233942 0.0000 0.0000 0.0000 0.0000 0.0000 0.0000 0.0000 0.0000 0.0000 0.0000 0.0000 0.0000 0.0000 0.0000 0.0000 0.0000 0.0000 0.0000 0.0000 0.0000 0.0000 0.0000 0.0000 0.0000 0.0000 0.0000 0.0000 -0.237819 0.877377 0.13895 -0.0747894 0.0704222 0.0726106 -0.0642983 -0.0810612 0.162544 0.0000 0.0000 0.0000 0.393445 0.434921 -0.0137616 0.21905 -0.363019 -0.578586 0.197358 -0.110848 0.0338736 
0.0000 0.0000 0.0000 0.0000 0.0000 0.0000 0.0000 0.0000 0.0000 -0.199668 1.28226 -0.422752 0.242285 -0.559468 0.381652 -0.0599522 -0.724174 0.0470467 0.0000 0.0000 0.0000 0.0000 0.0000 0.0000 -0.222133 0.722814 -0.0372572 0.145921 -0.122122 0.265254 0.0445412 -0.551666 -0.270972 0.0000 0.0000 0.0000 0.0000 0.0000 0.0000 0.0000 0.0000 0.0000 0.0000 0.0000 0.0000 0.0000 0.0000 0.0000 0.0000 0.0000 0.0000 0.0000 0.0000 0.0000 0.0000 0.0000 0.0000 0.0000 0.0000 0.0000 -0.258636 0.95469 0.155616 -0.133275 0.0483646 0.0326924 -0.0479496 -0.114396 0.24163 0.0000 0.0000 0.0000 0.398808 0.447861 -0.0429928 0.241178 -0.349212 -0.82725 0.239809 -0.136001 0.0870431 
0.0000 0.0000 0.0000 0.0000 0.0000 0.0000 0.0000 0.0000 0.0000 -0.256122 1.53619 -0.472242 0.314955 -0.536623 0.443313 -0.0830282 -1.00152 0.041736 0.0000 0.0000 0.0000 0.0000 0.0000 0.0000 -0.248005 0.855949 -0.0745795 0.15384 -0.111109 0.339685 0.0509522 -0.687633 -0.314369 0.0000 0.0000 0.0000 0.0000 0.0000 0.0000 0.0000 0.0000 0.0000 0.0000 0.0000 0.0000 0.0000 0.0000 0.0000 0.0000 0.0000 0.0000 0.0000 0.0000 0.0000 0.0000 0.0000 0.0000 0.0000 0.0000 0.0000 -0.299577 1.05088 0.177865 -0.145646 0.0114773 -0.0173172 -0.0492743 -0.172902 0.348797 0.0000 0.0000 0.0000 0.381814 0.440713 -0.129264 0.255678 -0.333799 -0.894559 0.25933 -0.172086 0.0630375 
0.0000 0.0000 0.0000 0.0000 0.0000 0.0000 0.0000 0.0000 0.0000 -0.305715 1.81259 -0.519325 0.376687 -0.563106 0.493467 -0.100803 -1.25359 0.0417524 0.0000 0.0000 0.0000 0.0000 0.0000 0.0000 -0.275442 1.00284 -0.114845 0.16561 -0.155334 0.4256 0.0536284 -0.781533 -0.364549 0.0000 0.0000 0.0000 0.0000 0.0000 0.0000 0.0000 0.0000 0.0000 0.0000 0.0000 0.0000 0.0000 0.0000 0.0000 0.0000 0.0000 0.0000 0.0000 0.0000 0.0000 0.0000 0.0000 0.0000 0.0000 0.0000 0.0000 -0.302689 1.18238 0.203771 -0.0977029 -0.0305225 -0.0431148 -0.0712411 -0.264675 0.433032 0.0000 0.0000 0.0000 0.371532 0.410414 -0.320264 0.252491 -0.322961 -0.78631 0.230332 -0.178171 0.0541248 
0.0000 0.0000 0.0000 0.0000 0.0000 0.0000 0.0000 0.0000 0.0000 -0.341494 2.06885 -0.559505 0.421869 -0.630449 0.523674 -0.117428 -1.44354 0.0574009 0.0000 0.0000 0.0000 0.0000 0.0000 0.0000 -0.30199 1.12223 -0.147155 0.175989 -0.198312 0.504075 0.0587032 -0.849325 -0.417841 0.0000 0.0000 0.0000 0.0000 0.0000 0.0000 0.0000 0.0000 0.0000 0.0000 0.0000 0.0000 0.0000 0.0000 0.0000 0.0000 0.0000 0.0000 0.0000 0.0000 0.0000 0.0000 0.0000 0.0000 0.0000 0.0000 0.0000 -0.202384 1.36192 0.243406 -0.0853782 -0.0738331 -0.0491041 -0.0552493 -0.376605 0.463752 0.0000 0.0000 0.0000 0.350192 0.357353 -0.487731 0.27965 -0.320961 -0.765406 0.170655 -0.200523 0.0951435 
